<svg width="320" height="321" viewBox="0 0 320 321" fill="none" xmlns="http://www.w3.org/2000/svg">
<g clip-path="url(#clip0_1_948)">
<rect opacity="0.6" x="8.78461" y="14.6421" width="114.203" height="73.2073" rx="19.522" fill="#4A4A4A"/>
<rect opacity="0.6" x="189.363" y="107.37" width="114.203" height="73.2073" rx="19.522" fill="#4A4A4A"/>
<rect opacity="0.6" x="11.7131" y="246.952" width="77.1117" height="46.8527" rx="19.522" fill="#4A4A4A"/>
<path d="M71.614 53.5369L69.1797 66.2054L81.3161 69.597L79.8082 56.0719L71.614 53.5369Z" fill="#A0616A"/>
<path d="M-6.10352e-05 315.775C-6.10352e-05 316.173 0.322501 316.493 0.724178 316.493H318.576C318.977 316.493 319.3 316.173 319.3 315.775C319.3 315.377 318.977 315.057 318.576 315.057H0.724178C0.322501 315.057 -6.10352e-05 315.377 -6.10352e-05 315.775Z" fill="#3F3D56"/>
<path d="M216.675 143.762H91.5104C77.3167 143.762 65.8104 155.168 65.8104 169.238V289.549C65.8104 303.618 77.3167 315.024 91.5103 315.024H216.675C230.869 315.024 242.375 303.618 242.375 289.548V169.238C242.375 155.168 230.869 143.762 216.675 143.762Z" fill="white"/>
<path d="M216.675 315.627H91.5102C77.0037 315.627 65.2016 303.928 65.2016 289.548V169.238C65.2016 154.858 77.0037 143.159 91.5102 143.159H216.675C231.181 143.159 242.983 154.858 242.983 169.238V289.548C242.983 303.928 231.181 315.627 216.675 315.627ZM91.5102 144.365C77.6747 144.365 66.4187 155.523 66.4187 169.238V289.548C66.4187 303.263 77.6747 314.42 91.5102 314.42H216.675C230.51 314.42 241.766 303.263 241.766 289.548V169.238C241.766 155.523 230.51 144.365 216.675 144.365L91.5102 144.365Z" fill="#3F3D56"/>
<path d="M225.741 195.922H175.432C173.298 195.922 171.562 194.201 171.562 192.085C171.562 189.97 173.298 188.249 175.432 188.249H225.741C227.875 188.249 229.611 189.97 229.611 192.085C229.611 194.201 227.875 195.922 225.741 195.922Z" fill="#6C63FF"/>
<path d="M178.544 226.088H129.641C128.408 226.088 127.405 225.094 127.405 223.872C127.405 222.649 128.408 221.656 129.641 221.656H178.544C179.777 221.656 180.78 222.649 180.78 223.872C180.78 225.094 179.777 226.088 178.544 226.088Z" fill="#6C63FF"/>
<path d="M109.425 152.001H81.5048C81.4005 152.001 81.316 152.085 81.316 152.189V155.411C81.316 155.514 81.4005 155.598 81.5048 155.598H109.425C109.529 155.598 109.613 155.514 109.613 155.411V152.189C109.613 152.085 109.529 152.001 109.425 152.001Z" fill="#6C63FF"/>
<path d="M203.468 155.597C205.071 155.597 206.37 154.309 206.37 152.72C206.37 151.132 205.071 149.844 203.468 149.844C201.865 149.844 200.565 151.132 200.565 152.72C200.565 154.309 201.865 155.597 203.468 155.597Z" fill="#3F3D56"/>
<path d="M211.449 155.597C213.052 155.597 214.351 154.309 214.351 152.72C214.351 151.132 213.052 149.844 211.449 149.844C209.846 149.844 208.547 151.132 208.547 152.72C208.547 154.309 209.846 155.597 211.449 155.597Z" fill="#3F3D56"/>
<path d="M219.431 155.597C221.034 155.597 222.333 154.309 222.333 152.72C222.333 151.132 221.034 149.844 219.431 149.844C217.828 149.844 216.528 151.132 216.528 152.72C216.528 154.309 217.828 155.597 219.431 155.597Z" fill="#3F3D56"/>
<path d="M91.2056 237.953C91.2056 238.351 91.5282 238.671 91.9299 238.671H216.255C216.657 238.671 216.979 238.351 216.979 237.953C216.979 237.555 216.657 237.235 216.255 237.235H91.9299C91.5282 237.235 91.2056 237.555 91.2056 237.953Z" fill="#3F3D56"/>
<path d="M129.123 60.8789C131.769 58.711 135.043 58.3074 136.435 59.9774C137.826 61.6473 136.809 64.7579 134.161 66.9263C133.115 67.8068 131.871 68.4263 130.535 68.7329L119.203 77.7781L115.034 72.4165L126.648 64.0687C127.204 62.8248 128.053 61.731 129.123 60.8789Z" fill="#A0616A"/>
<path d="M63.6276 81.287C63.6219 80.887 63.6257 77.3977 66.2316 75.1923C69.2252 72.6589 73.4492 73.6843 74.9307 74.044C78.3531 74.8748 78.6338 76.3301 81.8478 77.8254C87.8608 80.623 80.3267 79.1911 83.9046 78.294C85.1431 77.9835 102.96 76.7586 107.395 74.0527C116.021 68.7901 121.898 65.5989 121.898 65.5989L125.74 73.2159C125.74 73.2159 120.185 80.8735 112.366 86.5463C104.345 92.3654 100.335 95.2749 94.2403 96.3991C93.7154 96.4959 80.8077 98.6805 70.4115 90.9813C68.0402 89.2251 63.6954 86.0074 63.6276 81.287Z" fill="#E6E6E6"/>
<path d="M75.5459 61.9148C82.9378 61.9148 88.9301 55.9748 88.9301 48.6475C88.9301 41.3201 82.9378 35.3801 75.5459 35.3801C68.1541 35.3801 62.1618 41.3201 62.1618 48.6475C62.1618 55.9748 68.1541 61.9148 75.5459 61.9148Z" fill="#A0616A"/>
<path d="M180.365 137.783L166.582 123.797L159.466 131.154L169.736 144.565L179.922 145.72L180.365 137.783Z" fill="#A0616A"/>
<path d="M101.659 111.556C102.466 111.622 105.028 112.131 107.476 110.795C109.148 109.884 110.005 108.529 110.294 108.098C113.886 102.751 127.67 94.4129 140.042 93.8998C142.843 93.7836 144.687 94.1054 146.364 94.9715C148.74 96.1996 149.689 97.9588 152.705 102.08C154.355 104.334 156.18 106.458 157.85 108.697C167.625 121.81 171.33 122.839 170.952 127.043C170.531 131.707 165.457 136.133 162.084 135.622C160.703 135.412 160.168 134.46 158.323 132.533C152.912 126.882 150.673 127.926 146.821 123.597C142.323 118.544 142.912 114.354 140.565 114.192C138.389 114.042 137.464 117.616 132.819 122.365C130.693 124.538 129.179 125.535 124.567 128.706C106.608 141.057 106.321 141.925 102.697 142.91C101.111 143.341 89.8562 146.399 85.8469 141.532C79.5728 133.914 94.3948 110.957 101.659 111.556Z" fill="#2F2E41"/>
<path d="M176.151 140.944C177.165 140.493 178.351 139.965 178.732 138.752C178.99 137.931 178.841 136.918 178.308 136.219C177.693 135.412 176.782 135.305 176.818 135.163C176.875 134.945 179.029 135.03 181.393 135.859C181.839 136.015 183.861 136.747 186.432 138.737C188.493 140.332 188.215 140.651 189.507 141.571C193.473 144.393 197.192 142.169 199.338 144.815C200.166 145.836 200.52 147.286 200.171 148.459C199.471 150.814 196.068 151.624 194.207 152.042C189.727 153.05 186.336 152.227 182.796 151.636C170.754 149.625 163.988 151.457 163.083 148.691C162.911 148.168 163.19 148.212 164.118 144.372C165.035 140.581 165.005 139.54 165.785 139.236C166.96 138.779 167.749 140.858 170.708 141.569C173.331 142.199 175.495 141.236 176.151 140.944Z" fill="#2F2E41"/>
<path d="M155.86 183.536L152.378 164.291L142.322 166.418L143.223 183.23L150.997 189.856L155.86 183.536Z" fill="#A0616A"/>
<path d="M105.592 118.024C106.221 118.527 108.053 120.374 110.836 120.632C112.735 120.809 114.212 120.164 114.696 119.969C120.696 117.544 136.826 118.318 147.353 124.779C149.737 126.243 151.081 127.536 151.977 129.185C153.248 131.524 153.037 133.508 153.198 138.597C153.286 141.38 153.593 144.154 153.706 146.936C154.366 163.227 156.849 166.142 154.155 169.41C151.165 173.035 144.459 173.872 141.958 171.572C140.933 170.63 141.03 169.544 140.595 166.922C139.319 159.234 136.875 158.852 136.139 153.126C135.28 146.441 138.141 143.301 136.291 141.861C134.576 140.526 131.786 142.969 125.251 144.312C122.262 144.927 120.444 144.909 114.832 144.966C92.9748 145.189 92.246 145.747 88.689 144.545C87.1327 144.019 76.0872 140.285 75.527 134.026C74.6505 124.23 99.9198 113.485 105.592 118.024Z" fill="#2F2E41"/>
<path d="M150.583 183.806C151.677 183.997 152.957 184.22 153.96 183.428C154.639 182.893 155.089 181.972 155.044 181.097C154.992 180.086 154.298 179.491 154.41 179.393C154.579 179.245 156.314 180.514 157.801 182.516C158.081 182.894 159.339 184.625 160.34 187.703C161.141 190.169 160.731 190.279 161.279 191.759C162.962 196.301 167.299 196.531 167.576 199.916C167.683 201.222 167.153 202.618 166.201 203.394C164.288 204.953 161.012 203.729 159.236 203.04C154.958 201.38 152.619 198.812 150.024 196.351C141.199 187.984 134.563 185.734 135.381 182.942C135.535 182.413 135.74 182.605 138.684 179.944C141.59 177.317 142.155 176.439 142.973 176.622C144.204 176.898 143.679 179.057 145.725 181.293C147.538 183.275 149.874 183.682 150.583 183.806Z" fill="#2F2E41"/>
<path d="M77.3705 51.1843C77.8915 49.3367 77.2371 48.6634 77.9041 47.8341C77.9041 47.8341 78.1726 47.5004 80.5723 46.5998C79.8643 42.5275 80.3945 41.8389 80.3945 41.8389C81.0055 41.0453 82.2294 40.8534 83.0627 40.9572C84.825 41.1768 85.1369 42.756 86.2646 42.7205C87.8223 42.6716 89.6905 39.5807 89.1106 36.9017C88.6376 34.7164 86.598 33.0935 86.0867 33.3751C85.5797 33.6543 83.7548 32.4231 83.0627 32.6698C82.59 32.8382 80.3653 32.6141 79.8608 32.8461C79.3099 33.0995 77.7323 34.6769 77.5814 34.4781C76.5332 33.097 76.5556 32.6148 75.9474 32.3171C74.8699 31.7897 73.6983 32.7646 71.6783 33.7277C67.522 35.7095 66.3049 34.5274 64.3851 36.1964C63.4153 37.0395 62.8953 38.6507 61.8948 41.8389C60.4956 46.2975 59.796 48.5268 60.4717 50.6554C61.1609 52.8261 62.1757 52.3536 63.6736 55.4163C65.341 58.8254 64.7663 60.807 66.3418 61.5878C67.5595 62.1912 69.5164 61.8072 70.2552 60.7061C71.5202 58.8211 68.2506 56.2711 69.3658 53.3003C70.0504 51.4767 72.1621 50.094 73.4571 50.479C74.9214 50.9144 75.0292 53.5169 75.9474 53.4766C76.7338 53.4421 77.2797 51.5063 77.3705 51.1843Z" fill="#2F2E41"/>
<path d="M67.2314 63.8799C69.9703 60.8357 81.1263 63.9865 82.1734 68.8171C82.6041 70.804 81.0141 71.6429 81.4619 73.9306C82.1168 77.2767 85.8248 77.0486 88.5771 80.4548C92.4846 85.2906 88.4591 90.0177 92.8463 98.0878C93.7838 99.8122 94.5739 101.266 96.226 102.672C100.017 105.9 103.545 104.793 105.476 107.786C106.919 110.024 106.326 112.782 106.187 113.428C105.618 116.078 104.074 116.724 102.986 118.895C101.175 122.507 103.225 125.159 103.341 129.474C103.487 134.874 100.592 142.359 94.803 144.815C88.2991 147.574 80.4549 143.004 76.6591 138.467C74.3941 135.76 73.7366 133.262 72.7457 130.18C68.3171 116.403 65.8152 117.649 62.4286 106.728C58.557 94.2433 57.7959 79.6169 62.4286 74.9886C63.0426 74.3751 64.7324 72.9572 65.8083 70.404C67.256 66.9684 66.0054 65.2425 67.2314 63.8799Z" fill="#E6E6E6"/>
<path d="M107.701 134.743C109.825 137.418 110.154 140.672 108.436 142.011C106.719 143.35 103.606 142.268 101.482 139.592C100.619 138.535 100.024 137.288 99.7466 135.956L90.8937 124.512L95.4681 121.053L104.543 132.215C105.784 132.796 106.867 133.663 107.701 134.743Z" fill="#A0616A"/>
<path d="M75.2788 75.4813C75.6726 75.3941 79.1194 74.6858 81.8291 76.7646C84.9419 79.1527 84.7911 83.461 84.7382 84.9721C84.6161 88.4628 83.2361 89.0321 82.4151 92.4561C80.8792 98.8621 83.8042 104.815 85.4202 108.104C85.9796 109.243 87.7767 112.727 91.3539 116.478C98.3111 123.775 104.519 127.614 104.519 127.614L97.85 133.49C97.85 133.49 87.2274 130.281 80.0296 123.851C72.6463 117.255 61.292 93.9174 58.9383 88.2325C58.7356 87.743 61.6069 95.7022 67.0892 84.0425C68.3397 81.383 70.6309 76.5101 75.2788 75.4813Z" fill="#E6E6E6"/>
<path d="M166.715 254.389C162.477 255.033 159.376 257.723 159.79 260.397C160.204 263.071 163.975 264.716 168.215 264.071C169.913 263.836 171.529 263.202 172.928 262.222L190.853 259.268L189.657 252.245L171.772 254.753C170.14 254.233 168.406 254.108 166.715 254.389Z" fill="#FFB6B6"/>
<path d="M243.958 232.495L237.008 247.115L202.067 258.775L173.073 260.308L172.347 253.405L203.769 246.892L236.013 231.788L243.958 232.495Z" fill="#E6E6E6"/>
<path d="M179.514 288.008L173.274 303.654L165.199 298.196L169.971 281.822L179.514 288.008Z" fill="#FFB6B6"/>
<path d="M153.453 282.187L136.935 297.833L143.542 304.746L160.427 291.647L153.453 282.187Z" fill="#FFB6B6"/>
<path d="M247.054 231.245L246.871 229.972L242.649 221.785L228.701 225.424L231.27 236.703L247.054 231.245Z" fill="#FFB6B6"/>
<path d="M241.181 285.827L241.61 291.292C241.61 291.292 243.383 314.208 229.068 316.027C214.752 317.847 208.512 319.666 200.07 305.475L186.855 282.188L179.137 291.292L168.869 283.28C168.869 283.28 176.21 254.899 182.083 253.807C182.818 253.67 183.552 253.602 184.274 253.587C189.136 253.487 193.72 255.844 196.629 259.707L213.284 281.824L219.341 279.095L241.181 285.827Z" fill="#2F2E41"/>
<path d="M161.895 302.926L165.199 296.741L174.742 303.29C174.742 303.29 176.945 311.295 173.641 312.387C170.337 313.478 161.161 312.023 161.161 312.023C161.161 312.023 144.276 315.662 143.909 312.387C143.542 309.112 151.617 308.384 151.617 308.384L161.895 302.926Z" fill="#2F2E41"/>
<path d="M197.867 298.561L172.356 282.627L159.326 294.194L150.516 284.006C150.516 284.006 166.667 260.355 171.439 259.264C176.211 258.172 183.919 257.444 183.919 257.444L207.411 278.912L197.867 298.561Z" fill="#2F2E41"/>
<path d="M136.567 296.375L145.01 305.472L143.897 306.416C143.897 306.416 141.706 315.872 136.567 312.673C131.428 309.474 131.061 308.747 131.061 308.747C131.061 308.747 116.379 312.021 114.911 306.2C113.442 300.378 117.48 301.469 117.48 301.469L121.146 303.652L136.567 296.375Z" fill="#2F2E41"/>
<path d="M233.106 229.426C239.593 229.426 244.852 224.213 244.852 217.783C244.852 211.352 239.593 206.139 233.106 206.139C226.618 206.139 221.36 211.352 221.36 217.783C221.36 224.213 226.618 229.426 233.106 229.426Z" fill="#FFB6B6"/>
<path d="M230.353 234.339L247.238 229.245C247.238 229.245 253.845 244.527 252.744 251.441C251.642 258.354 241.61 291.291 241.61 291.291L219.341 279.094C219.341 279.094 218.974 271.817 217.872 268.542C216.771 265.267 213.284 255.261 220.993 246.892C228.701 238.524 230.353 234.339 230.353 234.339Z" fill="#E6E6E6"/>
<path d="M193.19 310.74C190.442 314.003 189.913 318.054 192.009 319.787C194.104 321.521 198.03 320.28 200.778 317.015C201.894 315.726 202.682 314.19 203.077 312.537L214.544 298.564L208.958 294.083L197.224 307.696C195.654 308.377 194.27 309.421 193.19 310.74Z" fill="#FFB6B6"/>
<path d="M243.304 241.678L247.295 257.349L227.762 288.344L207.821 308.21L201.358 302.895L221.468 278.09L236.712 246.131L243.304 241.678Z" fill="#E6E6E6"/>
<path d="M222.277 215.781C225.29 215.774 225.461 215.794 225.948 215.781C229.684 215.684 230.661 214.226 232.555 214.326C235.935 214.503 231.474 231.302 229.619 239.068C227.799 246.685 233.948 253.51 234.39 253.987C240.632 260.716 251.596 261.947 253.478 259.081C255.001 256.761 249.604 253.235 250.908 248.165C252.184 243.209 258.072 243.737 259.718 239.068C261.442 234.179 255.649 231.713 252.01 219.784C249.919 212.932 250.289 211.656 248.339 207.412C243.126 196.07 217.573 200.899 220.442 211.415C220.997 213.449 219.52 215.788 222.277 215.781Z" fill="#2F2E41"/>
<path d="M259.786 77.5568H136.336C132.845 77.5568 130.005 74.7412 130.005 71.2807V6.27678C130.005 2.81636 132.845 0.000732422 136.336 0.000732422H259.786C263.277 0.000732422 266.117 2.81635 266.117 6.27678V71.2807C266.117 74.7412 263.277 77.5568 259.786 77.5568Z" fill="white"/>
<path d="M259.786 77.5568H136.336C132.845 77.5568 130.005 74.7412 130.005 71.2807V6.27678C130.005 2.81636 132.845 0.000732422 136.336 0.000732422H259.786C263.277 0.000732422 266.117 2.81635 266.117 6.27678V71.2807C266.117 74.7412 263.277 77.5568 259.786 77.5568ZM136.336 1.04879C133.428 1.04879 131.062 3.39412 131.062 6.27678V71.2807C131.062 74.1634 133.428 76.5087 136.336 76.5087H259.786C262.694 76.5087 265.06 74.1634 265.06 71.2807V6.27678C265.06 3.39412 262.694 1.04879 259.786 1.04879H136.336Z" fill="#3F3D56"/>
<path d="M250.258 7.8612C251.133 7.8612 251.844 7.15736 251.844 6.28912C251.844 5.42088 251.133 4.71704 250.258 4.71704C249.382 4.71704 248.672 5.42088 248.672 6.28912C248.672 7.15736 249.382 7.8612 250.258 7.8612Z" fill="#3F3D56"/>
<path d="M254.487 7.8612C255.363 7.8612 256.073 7.15736 256.073 6.28912C256.073 5.42088 255.363 4.71704 254.487 4.71704C253.611 4.71704 252.901 5.42088 252.901 6.28912C252.901 7.15736 253.611 7.8612 254.487 7.8612Z" fill="#3F3D56"/>
<path d="M258.716 7.8612C259.592 7.8612 260.302 7.15736 260.302 6.28912C260.302 5.42088 259.592 4.71704 258.716 4.71704C257.84 4.71704 257.13 5.42088 257.13 6.28912C257.13 7.15736 257.84 7.8612 258.716 7.8612Z" fill="#3F3D56"/>
<path d="M138.992 31.7043C138.554 31.7043 138.199 32.0569 138.199 32.4904C138.199 32.7017 138.281 32.8972 138.43 33.0415C138.581 33.1945 138.779 33.2764 138.992 33.2764H257.658C258.096 33.2764 258.451 32.9238 258.451 32.4904C258.451 32.279 258.369 32.0836 258.22 31.9392C258.069 31.7862 257.871 31.7043 257.658 31.7043H138.992Z" fill="#E6E6E6"/>
<path d="M242.857 31.4419V33.538H138.992C138.701 33.538 138.437 33.4227 138.246 33.2288C138.051 33.0402 137.934 32.7782 137.934 32.4899C137.934 31.9135 138.41 31.4419 138.992 31.4419H242.857Z" fill="#6C63FF"/>
<path d="M256.337 27.5116H245.764C244.598 27.5116 243.65 26.5715 243.65 25.4154C243.65 24.2594 244.598 23.3193 245.764 23.3193H256.337C257.503 23.3193 258.451 24.2594 258.451 25.4154C258.451 26.5715 257.503 27.5116 256.337 27.5116Z" fill="#E6E6E6"/>
<path d="M187.085 16.5072H139.784C138.619 16.5072 137.67 15.5671 137.67 14.4111C137.67 13.255 138.619 12.3149 139.784 12.3149H187.085C188.251 12.3149 189.2 13.255 189.2 14.4111C189.2 15.5671 188.251 16.5072 187.085 16.5072Z" fill="#E6E6E6"/>
<path d="M138.992 55.2852C138.555 55.2852 138.199 55.6378 138.199 56.0712C138.199 56.2825 138.281 56.478 138.431 56.6223C138.581 56.7754 138.779 56.8572 138.992 56.8572H257.659C258.096 56.8572 258.452 56.5046 258.452 56.0712C258.452 55.8598 258.369 55.6644 258.22 55.5201C258.069 55.367 257.872 55.2852 257.659 55.2852H138.992Z" fill="#E6E6E6"/>
<path d="M202.151 55.0232V57.1193H138.992C138.701 57.1193 138.437 57.004 138.246 56.8101C138.051 56.6215 137.934 56.3595 137.934 56.0712C137.934 55.4948 138.41 55.0232 138.992 55.0232H202.151Z" fill="#6C63FF"/>
<path d="M256.337 51.0924H245.764C244.598 51.0924 243.65 50.1523 243.65 48.9963C243.65 47.8402 244.598 46.9001 245.764 46.9001H256.337C257.503 46.9001 258.452 47.8402 258.452 48.9963C258.452 50.1523 257.503 51.0924 256.337 51.0924Z" fill="#E6E6E6"/>
</g>
<defs>
<clipPath id="clip0_1_948">
<rect width="319.3" height="320.572" fill="white"/>
</clipPath>
</defs>
</svg>
